<svg width="964" height="198" viewBox="0 0 964 198" fill="none" xmlns="http://www.w3.org/2000/svg">
<path d="M179.865 147C177.062 147 174.887 146.227 173.34 144.68C171.793 143.133 171.02 141.007 171.02 138.3V53.33C171.02 50.5267 171.842 48.3033 173.485 46.66C175.225 44.92 177.497 44.05 180.3 44.05C183.2 44.05 185.472 44.92 187.115 46.66C188.855 48.3033 189.725 50.5267 189.725 53.33V131.63H230.47C236.27 131.63 239.17 134.192 239.17 139.315C239.17 144.438 236.27 147 230.47 147H179.865ZM280.595 74.355C290.455 74.355 297.753 76.82 302.49 81.75C307.323 86.5833 309.74 93.9783 309.74 103.935V139.315C309.74 141.925 308.966 144.003 307.42 145.55C305.873 147 303.746 147.725 301.04 147.725C298.526 147.725 296.448 146.952 294.805 145.405C293.258 143.858 292.485 141.828 292.485 139.315V136.125C290.841 139.895 288.231 142.843 284.655 144.97C281.175 147.097 277.115 148.16 272.475 148.16C267.738 148.16 263.436 147.193 259.57 145.26C255.703 143.327 252.658 140.668 250.435 137.285C248.211 133.902 247.1 130.132 247.1 125.975C247.1 120.755 248.405 116.647 251.015 113.65C253.721 110.653 258.071 108.478 264.065 107.125C270.058 105.772 278.323 105.095 288.86 105.095H292.485V101.76C292.485 97.0233 291.47 93.5917 289.44 91.465C287.41 89.2417 284.123 88.13 279.58 88.13C276.776 88.13 273.925 88.565 271.025 89.435C268.125 90.2083 264.693 91.3683 260.73 92.915C258.216 94.1717 256.38 94.8 255.22 94.8C253.48 94.8 252.03 94.1717 250.87 92.915C249.806 91.6583 249.275 90.015 249.275 87.985C249.275 86.3417 249.661 84.94 250.435 83.78C251.305 82.5233 252.706 81.3633 254.64 80.3C258.023 78.4633 262.035 77.0133 266.675 75.95C271.411 74.8867 276.051 74.355 280.595 74.355ZM276.1 135.11C280.933 135.11 284.848 133.515 287.845 130.325C290.938 127.038 292.485 122.833 292.485 117.71V114.665H289.875C283.398 114.665 278.371 114.955 274.795 115.535C271.218 116.115 268.656 117.13 267.11 118.58C265.563 120.03 264.79 122.012 264.79 124.525C264.79 127.618 265.853 130.18 267.98 132.21C270.203 134.143 272.91 135.11 276.1 135.11ZM364.99 134.385C369.824 134.675 372.24 136.85 372.24 140.91C372.24 143.23 371.274 145.018 369.34 146.275C367.504 147.435 364.845 147.918 361.365 147.725L357.45 147.435C341.21 146.275 333.09 137.575 333.09 121.335V89.725H325.84C323.23 89.725 321.2 89.145 319.75 87.985C318.397 86.825 317.72 85.1333 317.72 82.91C317.72 80.6867 318.397 78.995 319.75 77.835C321.2 76.675 323.23 76.095 325.84 76.095H333.09V62.755C333.09 60.145 333.912 58.0667 335.555 56.52C337.199 54.9733 339.422 54.2 342.225 54.2C344.932 54.2 347.107 54.9733 348.75 56.52C350.394 58.0667 351.215 60.145 351.215 62.755V76.095H363.54C366.15 76.095 368.132 76.675 369.485 77.835C370.935 78.995 371.66 80.6867 371.66 82.91C371.66 85.1333 370.935 86.825 369.485 87.985C368.132 89.145 366.15 89.725 363.54 89.725H351.215V122.64C351.215 129.793 354.502 133.612 361.075 134.095L364.99 134.385ZM390.676 147.87C388.066 147.87 385.891 147.145 384.151 145.695C382.507 144.148 381.686 141.973 381.686 139.17V83.2C381.686 80.3967 382.507 78.27 384.151 76.82C385.891 75.37 388.066 74.645 390.676 74.645C393.286 74.645 395.461 75.37 397.201 76.82C398.941 78.27 399.811 80.3967 399.811 83.2V139.17C399.811 141.973 398.941 144.148 397.201 145.695C395.461 147.145 393.286 147.87 390.676 147.87ZM390.676 61.74C387.389 61.74 384.779 60.87 382.846 59.13C380.912 57.2933 379.946 54.925 379.946 52.025C379.946 49.125 380.912 46.805 382.846 45.065C384.779 43.325 387.389 42.455 390.676 42.455C393.866 42.455 396.427 43.325 398.361 45.065C400.391 46.805 401.406 49.125 401.406 52.025C401.406 54.925 400.439 57.2933 398.506 59.13C396.572 60.87 393.962 61.74 390.676 61.74ZM459.682 74.355C468.189 74.355 474.52 76.7717 478.677 81.605C482.834 86.4383 484.912 93.7367 484.912 103.5V139.17C484.912 141.877 484.09 144.003 482.447 145.55C480.9 147.097 478.725 147.87 475.922 147.87C473.119 147.87 470.895 147.097 469.252 145.55C467.609 144.003 466.787 141.877 466.787 139.17V104.515C466.787 99.005 465.724 94.9933 463.597 92.48C461.567 89.9667 458.329 88.71 453.882 88.71C448.662 88.71 444.457 90.3533 441.267 93.64C438.174 96.9267 436.627 101.325 436.627 106.835V139.17C436.627 141.877 435.805 144.003 434.162 145.55C432.519 147.097 430.295 147.87 427.492 147.87C424.689 147.87 422.465 147.097 420.822 145.55C419.275 144.003 418.502 141.877 418.502 139.17V83.055C418.502 80.5417 419.324 78.5117 420.967 76.965C422.61 75.4183 424.834 74.645 427.637 74.645C430.15 74.645 432.18 75.4183 433.727 76.965C435.37 78.415 436.192 80.3483 436.192 82.765V86.68C438.609 82.7167 441.847 79.6717 445.907 77.545C449.967 75.4183 454.559 74.355 459.682 74.355ZM550.591 148.305C540.731 148.305 532.08 146.178 524.636 141.925C517.29 137.672 511.635 131.582 507.671 123.655C503.708 115.728 501.726 106.448 501.726 95.815C501.726 85.1817 503.708 75.95 507.671 68.12C511.635 60.1933 517.29 54.1033 524.636 49.85C532.08 45.5967 540.731 43.47 550.591 43.47C556.971 43.47 562.965 44.4367 568.571 46.37C574.178 48.2067 579.156 50.9133 583.506 54.49C584.763 55.4567 585.633 56.4717 586.116 57.535C586.6 58.5983 586.841 59.9033 586.841 61.45C586.841 63.5767 586.261 65.365 585.101 66.815C583.941 68.265 582.54 68.99 580.896 68.99C578.963 68.99 576.981 68.3133 574.951 66.96C570.795 63.8667 566.928 61.74 563.351 60.58C559.775 59.3233 555.811 58.695 551.461 58.695C541.408 58.695 533.771 61.8367 528.551 68.12C523.428 74.4033 520.866 83.635 520.866 95.815C520.866 108.092 523.428 117.372 528.551 123.655C533.771 129.938 541.408 133.08 551.461 133.08C555.618 133.08 559.436 132.452 562.916 131.195C566.493 129.938 570.505 127.812 574.951 124.815C575.918 124.235 576.885 123.752 577.851 123.365C578.818 122.978 579.833 122.785 580.896 122.785C582.54 122.785 583.941 123.51 585.101 124.96C586.261 126.41 586.841 128.198 586.841 130.325C586.841 131.775 586.6 133.08 586.116 134.24C585.633 135.303 584.763 136.318 583.506 137.285C579.156 140.862 574.178 143.617 568.571 145.55C562.965 147.387 556.971 148.305 550.591 148.305ZM632.512 148.16C625.262 148.16 618.882 146.662 613.372 143.665C607.959 140.668 603.754 136.367 600.757 130.76C597.76 125.153 596.262 118.628 596.262 111.185C596.262 103.742 597.76 97.265 600.757 91.755C603.754 86.1483 607.959 81.8467 613.372 78.85C618.882 75.8533 625.262 74.355 632.512 74.355C639.762 74.355 646.094 75.8533 651.507 78.85C657.017 81.8467 661.222 86.1483 664.122 91.755C667.119 97.265 668.617 103.742 668.617 111.185C668.617 118.628 667.119 125.153 664.122 130.76C661.222 136.367 657.017 140.668 651.507 143.665C646.094 146.662 639.762 148.16 632.512 148.16ZM632.367 134.095C638.264 134.095 642.759 132.162 645.852 128.295C648.945 124.428 650.492 118.725 650.492 111.185C650.492 103.742 648.945 98.0867 645.852 94.22C642.759 90.2567 638.312 88.275 632.512 88.275C626.712 88.275 622.217 90.2567 619.027 94.22C615.934 98.0867 614.387 103.742 614.387 111.185C614.387 118.725 615.934 124.428 619.027 128.295C622.12 132.162 626.567 134.095 632.367 134.095ZM742.74 44.05C745.447 44.05 747.67 44.8233 749.41 46.37C751.15 47.9167 752.02 49.9467 752.02 52.46V139.17C752.02 141.78 751.199 143.858 749.555 145.405C747.912 146.952 745.737 147.725 743.03 147.725C740.324 147.725 738.149 146.952 736.505 145.405C734.862 143.858 734.04 141.78 734.04 139.17V135.545C731.914 139.508 728.82 142.602 724.76 144.825C720.797 147.048 716.254 148.16 711.13 148.16C705.04 148.16 699.579 146.613 694.745 143.52C690.009 140.427 686.287 136.077 683.58 130.47C680.97 124.767 679.665 118.242 679.665 110.895C679.665 103.548 680.97 97.12 683.58 91.61C686.287 86.1 690.009 81.8467 694.745 78.85C699.482 75.8533 704.944 74.355 711.13 74.355C716.254 74.355 720.797 75.4183 724.76 77.545C728.724 79.6717 731.769 82.6683 733.895 86.535V52.17C733.895 49.7533 734.669 47.82 736.215 46.37C737.859 44.8233 740.034 44.05 742.74 44.05ZM715.915 134.095C721.715 134.095 726.162 132.113 729.255 128.15C732.445 124.187 734.04 118.532 734.04 111.185C734.04 103.838 732.445 98.2317 729.255 94.365C726.162 90.4017 721.764 88.42 716.06 88.42C710.26 88.42 705.765 90.3533 702.575 94.22C699.385 98.0867 697.79 103.645 697.79 110.895C697.79 118.242 699.385 123.945 702.575 128.005C705.765 132.065 710.212 134.095 715.915 134.095ZM826.78 127.57C828.424 127.57 829.729 128.198 830.695 129.455C831.759 130.712 832.29 132.403 832.29 134.53C832.29 137.527 830.502 140.04 826.925 142.07C823.639 143.907 819.917 145.405 815.76 146.565C811.604 147.628 807.64 148.16 803.87 148.16C792.464 148.16 783.425 144.873 776.755 138.3C770.085 131.727 766.75 122.737 766.75 111.33C766.75 104.08 768.2 97.6517 771.1 92.045C774 86.4383 778.06 82.0883 783.28 78.995C788.597 75.9017 794.59 74.355 801.26 74.355C807.64 74.355 813.199 75.7567 817.935 78.56C822.672 81.3633 826.345 85.3267 828.955 90.45C831.565 95.5733 832.87 101.615 832.87 108.575C832.87 112.732 831.034 114.81 827.36 114.81H784.585C785.165 121.48 787.05 126.41 790.24 129.6C793.43 132.693 798.07 134.24 804.16 134.24C807.254 134.24 809.96 133.853 812.28 133.08C814.697 132.307 817.404 131.243 820.4 129.89C823.3 128.343 825.427 127.57 826.78 127.57ZM801.695 87.115C796.765 87.115 792.802 88.6617 789.805 91.755C786.905 94.8483 785.165 99.295 784.585 105.095H817.355C817.162 99.1983 815.712 94.7517 813.005 91.755C810.299 88.6617 806.529 87.115 801.695 87.115ZM887.281 74.645C889.795 74.4517 891.776 74.9833 893.226 76.24C894.676 77.4967 895.401 79.3817 895.401 81.895C895.401 84.505 894.773 86.4383 893.516 87.695C892.26 88.9517 889.988 89.7733 886.701 90.16L882.351 90.595C876.648 91.175 872.443 93.1083 869.736 96.395C867.126 99.6817 865.821 103.79 865.821 108.72V139.17C865.821 141.973 864.951 144.148 863.211 145.695C861.471 147.145 859.296 147.87 856.686 147.87C854.076 147.87 851.901 147.145 850.161 145.695C848.518 144.148 847.696 141.973 847.696 139.17V83.055C847.696 80.3483 848.518 78.27 850.161 76.82C851.901 75.37 854.028 74.645 856.541 74.645C859.055 74.645 861.085 75.37 862.631 76.82C864.178 78.1733 864.951 80.155 864.951 82.765V88.565C866.788 84.3117 869.495 81.025 873.071 78.705C876.745 76.385 880.805 75.08 885.251 74.79L887.281 74.645ZM928.161 148.16C917.625 148.16 909.118 146.082 902.641 141.925C899.548 140.088 898.001 137.478 898.001 134.095C898.001 132.162 898.533 130.615 899.596 129.455C900.66 128.198 901.965 127.57 903.511 127.57C905.155 127.57 907.426 128.343 910.326 129.89C913.42 131.34 916.223 132.452 918.736 133.225C921.346 133.998 924.633 134.385 928.596 134.385C932.656 134.385 935.798 133.708 938.021 132.355C940.341 131.002 941.501 129.117 941.501 126.7C941.501 125.057 941.018 123.752 940.051 122.785C939.181 121.818 937.538 120.948 935.121 120.175C932.801 119.305 929.225 118.338 924.391 117.275C915.788 115.535 909.601 113.07 905.831 109.88C902.158 106.69 900.321 102.292 900.321 96.685C900.321 92.4317 901.578 88.6133 904.091 85.23C906.605 81.75 910.036 79.0917 914.386 77.255C918.833 75.3217 923.86 74.355 929.466 74.355C933.526 74.355 937.441 74.8867 941.211 75.95C944.981 76.9167 948.365 78.3667 951.361 80.3C954.455 82.2333 956.001 84.795 956.001 87.985C956.001 89.9183 955.47 91.5617 954.406 92.915C953.343 94.1717 952.038 94.8 950.491 94.8C949.428 94.8 948.365 94.6067 947.301 94.22C946.335 93.7367 945.078 93.06 943.531 92.19C940.728 90.74 938.311 89.6767 936.281 89C934.251 88.2267 931.738 87.84 928.741 87.84C925.165 87.84 922.313 88.565 920.186 90.015C918.156 91.465 917.141 93.4467 917.141 95.96C917.141 98.3767 918.205 100.213 920.331 101.47C922.458 102.727 926.566 103.983 932.656 105.24C939.133 106.593 944.208 108.14 947.881 109.88C951.555 111.62 954.165 113.795 955.711 116.405C957.355 119.015 958.176 122.35 958.176 126.41C958.176 132.983 955.421 138.252 949.911 142.215C944.498 146.178 937.248 148.16 928.161 148.16Z" fill="#454545"/>
<path d="M155 34C155 29 150 24 145 24H15C10 24 5 29 5 34V129H155V34Z" fill="#212528"/>
<path d="M5 129V139C5 144 10 149 15 149H145C150 149 155 144 155 139V129H5Z" fill="#DDDDDD"/>
<path d="M60 154C60 164 50 164 40 164H120C110 164 100 164 100 154V149H60V154Z" fill="#BFBEBE"/>
<path d="M15 34H145V119H15V34Z" fill="url(#paint0_linear)"/>
<path d="M80 141.25C81.3807 141.25 82.5 140.131 82.5 138.75C82.5 137.369 81.3807 136.25 80 136.25C78.6193 136.25 77.5 137.369 77.5 138.75C77.5 140.131 78.6193 141.25 80 141.25Z" fill="#94989B"/>
<path d="M40 164H120V174H40V164Z" fill="#94989B"/>
<g clip-path="url(#clip0)">
<path d="M62.3057 96.6875C61.2655 96.689 60.261 96.3078 59.4837 95.6165L37.9787 76.5L60.678 56.321C61.5241 55.5972 62.6204 55.2343 63.7312 55.3105C64.8421 55.3866 65.8787 55.8956 66.6181 56.728C67.3576 57.5605 67.7408 58.6499 67.6855 59.7619C67.6301 60.874 67.1405 61.9199 66.322 62.6748L50.7712 76.5L65.1277 89.2585C65.7727 89.8308 66.2284 90.5857 66.4342 91.4231C66.64 92.2605 66.5862 93.1406 66.28 93.9467C65.9738 94.7528 65.4297 95.4466 64.7198 95.9362C64.01 96.4257 63.168 96.6878 62.3057 96.6875ZM100.322 96.679L123.021 76.5L101.516 57.3835C100.674 56.6351 99.5683 56.252 98.4433 56.3185C97.3183 56.3851 96.2658 56.8958 95.5173 57.7384C94.7689 58.5809 94.3858 59.6863 94.4524 60.8113C94.5189 61.9363 95.0296 62.9888 95.8722 63.7372L110.229 76.5L94.678 90.321C93.8348 91.0694 93.3236 92.1222 93.2566 93.2476C93.1897 94.373 93.5725 95.4789 94.321 96.322C95.0694 97.1651 96.1221 97.6764 97.2475 97.7433C98.3729 97.8103 99.4788 97.4274 100.322 96.679ZM80.4405 102.701L88.9405 51.7013C89.0491 51.1439 89.045 50.5704 88.9284 50.0146C88.8117 49.4589 88.5848 48.9321 88.2612 48.4655C87.9375 47.9989 87.5236 47.6019 87.0439 47.2979C86.5643 46.9939 86.0285 46.7892 85.4684 46.6957C84.9083 46.6023 84.3351 46.622 83.7827 46.7538C83.2304 46.8856 82.71 47.1268 82.2524 47.463C81.7948 47.7993 81.4092 48.2239 81.1184 48.7116C80.8277 49.1994 80.6376 49.7405 80.5595 50.303L72.0595 101.303C71.9508 101.86 71.9549 102.434 72.0716 102.99C72.1882 103.545 72.4151 104.072 72.7388 104.539C73.0624 105.005 73.4763 105.402 73.956 105.706C74.4356 106.01 74.9714 106.215 75.5315 106.308C76.0916 106.402 76.6648 106.382 77.2172 106.25C77.7696 106.119 78.2899 105.877 78.7475 105.541C79.2051 105.205 79.5907 104.78 79.8815 104.293C80.1723 103.805 80.3623 103.264 80.4405 102.701Z" fill="#FF9500"/>
</g>
<defs>
<linearGradient id="paint0_linear" x1="145.455" y1="33.5454" x2="14.5454" y2="119.606" gradientUnits="userSpaceOnUse">
<stop stop-color="#3E4347"/>
<stop offset="1" stop-color="#3E4347" stop-opacity="0"/>
</linearGradient>
<clipPath id="clip0">
<rect width="85" height="85" fill="white" transform="translate(38 34)"/>
</clipPath>
</defs>
</svg>
